<svg width="512" height="512" viewBox="0 0 512 512" fill="none" xmlns="http://www.w3.org/2000/svg">
<rect width="512" height="512" fill="#FFD600"/>
<path d="M244.66 274.223V322.387H265.93C279.523 322.387 289.309 320.629 295.285 317.113C301.145 313.598 304.074 307.387 304.074 298.48C304.074 290.16 301.438 284.008 296.164 280.023C290.891 276.156 280.695 274.223 265.578 274.223H244.66ZM244.66 185.102V229.75H265.578C279.758 229.75 289.074 227.699 293.527 223.598C297.746 219.496 299.855 214.105 299.855 207.426C299.855 201.684 297.922 196.527 294.055 191.957C290.188 187.387 279.582 185.102 262.238 185.102H244.66ZM267.16 376H128.82V317.465H150.09V190.023H128.82V131.488H278.234C307.531 131.488 330.207 133.188 346.262 136.586C362.082 140.102 374.504 147.074 383.527 157.504C392.551 168.168 397.062 180.59 397.062 194.77C397.062 208.598 392.785 219.613 384.23 227.816C375.441 236.254 364.777 242.113 352.238 245.395C369.465 250.551 382.707 258.52 391.965 269.301C401.34 280.316 406.027 292.68 406.027 306.391C406.027 322.797 400.754 336.742 390.207 348.227C379.66 359.594 365.188 367.035 346.789 370.551C328.625 374.184 302.082 376 267.16 376Z" fill="black"/>
</svg>
